<svg id="Layer_1" data-name="Layer 1" xmlns="http://www.w3.org/2000/svg" viewBox="0 0 205.53 38.1"><defs><style>.cls-1{fill:#e74f3d;}</style></defs><title>HuskyLogo-red</title><path class="cls-1" d="M108.79,18.88h12.72c-.85-10-12-11.7-17.41-11.49s-15.21,1-15.86,10.88C87.82,24.73,93,26.81,97.56,29c2.23,1.06,5.78,2.39,7.26,3,4.87,2,2.49,5.09-1.35,5.24-4.16.15-6.39-2.11-6.5-4H84.83c.11,10.49,11.5,12.21,18.53,12.21s17-2.88,16.71-12.11c-.21-6.78-6.52-8.86-10.77-10.7s-9.11-2.31-8.87-4.93c.28-3.08,8.2-2.93,8.36,1.15" transform="translate(-4.68 -7.37)"/><polygon class="cls-1" points="29.7 1.04 27.85 13.36 16.28 13.36 18.14 1.04 5.41 1.04 0 36.92 12.72 36.92 14.76 23.45 26.31 23.45 24.28 36.92 36.99 36.92 42.41 1.04 29.7 1.04"/><path class="cls-1" d="M49.76,8.41H62.48s-2.8,18.67-3.37,22.41S59.81,37,64.34,37c5.32,0,6-4.41,6.52-8.08.8-5.26,3.07-20.46,3.07-20.46H87s-2.17,14.36-3.38,22.41C82.55,38,80.74,45.47,64.57,45.47c-19.06,0-19-9-18.15-14.8.36-2.34,3.34-22.26,3.34-22.26" transform="translate(-4.68 -7.37)"/><polygon class="cls-1" points="191.64 1.04 178.91 1.04 169.86 13.7 162.58 1.04 144.87 1.04 132.07 12.71 133.81 1.04 121.09 1.04 115.67 36.92 128.39 36.92 129.81 27.6 133.41 24.34 140.06 36.92 154.46 36.92 142.48 16.09 153.02 6.52 162.81 23.57 160.79 36.92 173.49 36.92 175.51 23.54 191.64 1.04"/><path class="cls-1" d="M204.61,8.41a5.89,5.89,0,0,1,2.76.7,5,5,0,0,1,2.09,2,5.24,5.24,0,0,1,0,5.4,5.14,5.14,0,0,1-2.08,2,5.84,5.84,0,0,1-5.58,0,5.11,5.11,0,0,1-2.07-2,5.25,5.25,0,0,1-.74-2.69,5.36,5.36,0,0,1,.75-2.71,5,5,0,0,1,2.1-2,5.82,5.82,0,0,1,2.75-.7m0,.89a5,5,0,0,0-2.3.59,4.28,4.28,0,0,0-1.74,1.66,4.48,4.48,0,0,0-.64,2.26,4.43,4.43,0,0,0,.62,2.24,4.37,4.37,0,0,0,1.74,1.67,4.8,4.8,0,0,0,4.65,0,4.28,4.28,0,0,0,1.73-1.67,4.36,4.36,0,0,0,0-4.5,4.24,4.24,0,0,0-1.75-1.66,4.92,4.92,0,0,0-2.3-.59m-2.46,7.5V11h2.08a5.07,5.07,0,0,1,1.53.16,1.39,1.39,0,0,1,.76.56,1.45,1.45,0,0,1,.29.85,1.49,1.49,0,0,1-.48,1.11,1.87,1.87,0,0,1-1.25.53,1.53,1.53,0,0,1,.51.31,6.2,6.2,0,0,1,.9,1.15l.73,1.14H206l-.53-.92a4.6,4.6,0,0,0-1-1.35,1.32,1.32,0,0,0-.78-.2h-.57V16.8Zm1-3.27h1.18a1.88,1.88,0,0,0,1.15-.25.76.76,0,0,0,.31-.64.75.75,0,0,0-.15-.46.82.82,0,0,0-.41-.31,3.35,3.35,0,0,0-1-.1h-1.11Z" transform="translate(-4.68 -7.37)"/></svg>